<svg xmlns="http://www.w3.org/2000/svg" width="1100" height="290" viewBox="0 0 1100 290" fill="none" role="img" aria-labelledby="title desc">
  <title id="title">Swayam — Software Developer</title>
  <desc id="desc">Backend, full-stack, and applied AI. A circuit-inspired motif connects interface, API, data, and AI.</desc>
  <defs>
    <pattern id="grid" width="32" height="32" patternUnits="userSpaceOnUse"><path d="M32 0H0V32" stroke="#173248" stroke-width=".7"/></pattern>
    <linearGradient id="accent" x1="150" y1="0" x2="990" y2="290" gradientUnits="userSpaceOnUse"><stop stop-color="#67e8f9"/><stop offset="1" stop-color="#38bdf8"/></linearGradient>
    <radialGradient id="wash"><stop stop-color="#103549" stop-opacity=".9"/><stop offset="1" stop-color="#0b1220" stop-opacity="0"/></radialGradient>
  </defs>
  <rect x="1" y="1" width="1098" height="288" rx="20" fill="#0b1220" stroke="#203b52"/>
  <rect x="1" y="1" width="1098" height="288" rx="20" fill="url(#grid)" opacity=".75"/>
  <ellipse cx="550" cy="152" rx="410" ry="195" fill="url(#wash)"/>
  <path d="M0 146H106L139 113H190M1100 146H994L961 179H910M72 46H204M896 244H1028" stroke="#203b52" stroke-width="1.5"/>
  <circle cx="190" cy="113" r="4" fill="#67e8f9"/><circle cx="910" cy="179" r="4" fill="#67e8f9"/>
  <g fill="#a0b3c7" font-family="Consolas, 'Courier New', monospace" font-size="12" letter-spacing="2">
    <text x="34" y="31">SWAYAMKR03 / ENGINEERING</text>
    <text x="1066" y="31" text-anchor="end">CODE · DATA · SYSTEMS</text>
  </g>
  <text x="550" y="82" text-anchor="middle" fill="#67e8f9" font-family="Consolas, 'Courier New', monospace" font-size="15" letter-spacing="5">SOFTWARE DEVELOPER</text>
  <text x="550" y="158" text-anchor="middle" fill="#eff8ff" font-family="'Segoe UI', Arial, sans-serif" font-size="78" font-weight="700" letter-spacing="-3">Swayam<tspan fill="url(#accent)">.</tspan></text>
  <text x="550" y="190" text-anchor="middle" fill="#a0b3c7" font-family="'Segoe UI', Arial, sans-serif" font-size="18" letter-spacing="1.5">BACKEND / FULL STACK / APPLIED AI</text>
  <path d="M380 237H720" stroke="#203b52" stroke-width="2"/>
  <g font-family="Consolas, 'Courier New', monospace" font-size="12" text-anchor="middle" letter-spacing="1">
    <rect x="314" y="221" width="112" height="32" rx="16" fill="#111e31" stroke="#203b52"/>
    <rect x="448" y="221" width="74" height="32" rx="16" fill="#111e31" stroke="#203b52"/>
    <rect x="550" y="221" width="84" height="32" rx="16" fill="#111e31" stroke="#203b52"/>
    <rect x="662" y="221" width="122" height="32" rx="16" fill="#111e31" stroke="#203b52"/>
    <text x="370" y="241" fill="#a0b3c7">INTERFACE</text>
    <text x="485" y="241" fill="#67e8f9">API</text>
    <text x="592" y="241" fill="#67e8f9">DATA</text>
    <text x="723" y="241" fill="#a0b3c7">INTELLIGENCE</text>
  </g>
</svg>
